<?xml version="1.0" encoding="utf-8"?>
<!-- Generator: Adobe Illustrator 23.0.2, SVG Export Plug-In . SVG Version: 6.00 Build 0)  -->
<svg version="1.1" id="Layer_1" xmlns="http://www.w3.org/2000/svg" xmlns:xlink="http://www.w3.org/1999/xlink" x="0px" y="0px"
	 viewBox="0 0 64 64" style="enable-background:new 0 0 64 64;" xml:space="preserve">
<style type="text/css">
	.st0{fill:none;}
	.st1{fill:#B84931;}
</style>
<circle class="st0" cx="32" cy="32" r="32"/>
<title>icon_sojourny</title>
<path class="st1" d="M14,53.3c-2.4,0-4.5-1.8-4.8-4.2c-0.3-2.6,1.5-5.1,4.2-5.4h0.3l4.8-4.8v-8.6H9.1v-2.2H24V10.8h1.6v17.3h29.2
	v2.2h-9.4v9.1l4.2,4.2h0.1h0.4c1.5,0,2.9,0.7,3.8,1.8c1.6,2.1,1.3,5.1-0.8,6.8c-0.9,0.7-1.9,1-3,1c-1.5,0-2.9-0.7-3.8-1.8
	c-1.6-2.1-1.3-5.1,0.8-6.8L48,44l-3.9-3.9H32.6v3.5l0.7,0.2c1.6,0.5,2.8,1.7,3.2,3.2c0.8,2.5-0.7,5.2-3.2,6
	c-0.4,0.1-0.9,0.2-1.4,0.2c-2.1,0-4-1.4-4.6-3.4c-0.8-2.5,0.7-5.2,3.2-6l0.7-0.2v-3.5h-12l-3.6,3.6l1,0.6c1.2,0.8,2,2,2.2,3.5
	c0.2,1.3-0.2,2.5-1,3.6c-0.8,1-1.9,1.7-3.2,1.8C14.4,53.3,14.2,53.3,14,53.3z"/>
</svg>
