<?xml version="1.0" encoding="utf-8"?>
<!-- Generator: Adobe Illustrator 23.0.2, SVG Export Plug-In . SVG Version: 6.00 Build 0)  -->
<svg version="1.1" id="Layer_1" xmlns="http://www.w3.org/2000/svg" xmlns:xlink="http://www.w3.org/1999/xlink" x="0px" y="0px"
	 viewBox="0 0 17.9 18.7" style="enable-background:new 0 0 17.9 18.7;" xml:space="preserve">
<style type="text/css">
	.st0{fill:#DE8916;}
	.st1{fill:none;stroke:#B84931;stroke-width:0.75;stroke-miterlimit:10;}
</style>
<title>icon_config</title>
<g>
	<g id="Layer_45_1_">
		<path class="st0" d="M4.3,14.7c-2.9,2.1-3-0.7-3.9-2.1c-0.4-0.6-0.2-1,0.4-1.4c1-0.6,1.4-1.8,0.8-2.9C1.5,8,1.2,7.7,0.9,7.5
			C0.2,7,0.1,6.5,0.5,5.9c0.9-1.2,0.9-3.7,3.7-2.2c1.1,0.2,2.1-0.5,2.3-1.6c0-0.1,0-0.2,0-0.3C6.4-0.3,8,0.3,9,0.3s2.4-0.6,2.3,1.4
			c0.1,1.2,1.2,2,2.3,1.9c0.2,0,0.5-0.1,0.7-0.2c1.8-1,2,0.7,2.5,1.5s1.5,1.8-0.1,2.7c-0.9,0.7-1.1,2-0.4,2.9
			c0.1,0.2,0.3,0.3,0.4,0.4c1.8,1,0.5,2.1,0,2.9s-0.8,2.3-2.4,1.3c-1.1-0.5-2.3,0-2.8,1c-0.1,0.2-0.2,0.5-0.2,0.7
			c0,2-1.4,1.4-2.3,1.4S6.4,19,6.6,16.9C6.6,15.4,5,15.6,4.3,14.7z M9,6.5c-1.6,0-2.9,1.2-2.9,2.8s1.2,2.9,2.8,2.9
			c1.6,0.1,2.9-1.1,2.9-2.7l0,0C11.9,7.9,10.7,6.6,9,6.5C9.1,6.5,9,6.5,9,6.5z"/>
	</g>
</g>
<g>
	<g id="Layer_45">
		<path class="st1" d="M4.3,14.7c-2.9,2.1-3-0.7-3.9-2.1c-0.4-0.6-0.2-1,0.4-1.4c1-0.6,1.4-1.8,0.8-2.9C1.5,8,1.2,7.7,0.9,7.5
			C0.2,7,0.1,6.5,0.5,5.9c0.9-1.2,0.9-3.7,3.7-2.2c1.1,0.2,2.1-0.5,2.3-1.6c0-0.1,0-0.2,0-0.3C6.4-0.3,8,0.3,9,0.3s2.4-0.6,2.3,1.4
			c0.1,1.2,1.2,2,2.3,1.9c0.2,0,0.5-0.1,0.7-0.2c1.8-1,2,0.7,2.5,1.5s1.5,1.8-0.1,2.7c-0.9,0.7-1.1,2-0.4,2.9
			c0.1,0.2,0.3,0.3,0.4,0.4c1.8,1,0.5,2.1,0,2.9s-0.8,2.3-2.4,1.3c-1.1-0.5-2.3,0-2.8,1c-0.1,0.2-0.2,0.5-0.2,0.7
			c0,2-1.4,1.4-2.3,1.4S6.4,19,6.6,16.9C6.6,15.4,5,15.6,4.3,14.7z M9,6.5c-1.6,0-2.9,1.2-2.9,2.8s1.2,2.9,2.8,2.9
			c1.6,0.1,2.9-1.1,2.9-2.7l0,0C11.9,7.9,10.7,6.6,9,6.5C9.1,6.5,9,6.5,9,6.5z"/>
	</g>
</g>
</svg>
