<?xml version="1.0" encoding="utf-8"?>
<!-- Generator: Adobe Illustrator 23.0.2, SVG Export Plug-In . SVG Version: 6.00 Build 0)  -->
<svg version="1.1" id="Layer_1" xmlns="http://www.w3.org/2000/svg" xmlns:xlink="http://www.w3.org/1999/xlink" x="0px" y="0px"
	 viewBox="0 0 64 64" style="enable-background:new 0 0 64 64;" xml:space="preserve">
<style type="text/css">
	.st0{fill:#B84931;}
	.st1{fill:none;}
</style>
<title>icon_curiosity_1</title>
<path class="st0" d="M52.8,53.5c-2.6,0-4.9-2-5.2-4.6c-0.2-1.4,0.2-2.8,1-3.9c0.7-1,1.7-1.6,2.9-1.9l-6.4-3.7H29.4l4.4,2.8V43
	c2.1,0.5,3.8,2.2,4.1,4.4c0.2,1.4-0.2,2.8-1,3.9s-2.1,1.8-3.5,2c-0.2,0-0.5,0-0.7,0c-2.6,0-4.9-2-5.2-4.6c-0.4-2.7,1.4-5.1,3.9-5.8
	L25,39.3h-6.2L12.4,43c2.1,0.5,3.7,2.3,4,4.4c0.4,2.9-1.7,5.5-4.5,5.9c-0.2,0-0.5,0-0.7,0c-2.6,0-4.9-2-5.2-4.6
	c-0.4-2.7,1.5-5.3,4.1-5.8v-1.1l5.8-3.4v-3.2L4.5,30.1l3.9-8.4l7.5,3.5v-7h4.3v4.5h2.9V26h1.2v1.6h4.1v-1.2h7.2v1.2H39v-1.2h4.1
	v-4.8h-0.8v-1.8h0.8v-3.5h-2.5V14h0.8V9.5h10.1v4.6h0.8v2.2h-4.6v2.9h-0.8v0.7h1.2v1.8h-1.2v0.7H49v1.8h-1.7v2.1h-0.4v1.5h1.2v0.8
	H50v0.8h1.6v0.4h2.5v3.1H50v0.8h-1.7v5.1l5.6,3.5v0.9c2.1,0.5,3.8,2.2,4.1,4.4c0.4,2.9-1.7,5.5-4.5,5.9C53.3,53.4,53,53.5,52.8,53.5
	L52.8,53.5z M51.7,44.5c-1.6,0.5-2.8,2-2.7,3.7c0,2.1,1.7,3.8,3.8,3.8c2,0,3.6-1.4,3.9-3.3c0.1-1-0.1-2-0.7-2.8
	c-0.5-0.7-1.2-1.1-2-1.4v1.4c0.6,0.3,1.1,0.9,1.3,1.5c0.2,0.7,0.1,1.4-0.2,2s-0.9,1.1-1.5,1.3c-0.3,0.1-0.5,0.1-0.8,0.1
	c-1.1,0-2.1-0.7-2.5-1.8c-0.2-0.7-0.1-1.4,0.2-2c0.3-0.5,0.7-0.9,1.2-1.1V44.5z M10.1,44.5c-1.7,0.4-2.9,1.9-2.9,3.7
	c0,2.1,1.7,3.8,3.8,3.8s3.8-1.7,3.8-3.8v-0.4c-0.2-1.5-1.2-2.7-2.6-3.2V46c0.6,0.3,1.1,0.9,1.2,1.6c0.2,0.7,0,1.4-0.3,1.9
	c-0.4,0.6-0.9,1-1.6,1.1c-0.2,0-0.4,0.1-0.6,0.1c-1.2,0-2.2-0.8-2.5-2s0.4-2.5,1.5-3v-1.2H10.1z M31.5,44.5
	c-1.6,0.5-2.7,1.9-2.7,3.6c0,1,0.4,2,1.1,2.7s1.7,1.1,2.7,1.1c2.1,0,3.8-1.7,3.8-3.8c0-1.7-1.2-3.2-2.8-3.7v1.4
	c0.6,0.3,1.1,0.9,1.3,1.5c0.4,1.3-0.3,2.8-1.7,3.2c-0.3,0.1-0.5,0.1-0.8,0.1c-1.1,0-2.1-0.7-2.4-1.8c-0.4-1.2,0.2-2.5,1.3-3.1v-1.2
	H31.5z"/>
<circle class="st1" cx="32" cy="32" r="32"/>
</svg>
