<?xml version="1.0" encoding="utf-8"?>
<!-- Generator: Adobe Illustrator 23.0.2, SVG Export Plug-In . SVG Version: 6.00 Build 0)  -->
<svg version="1.1" id="Layer_1" xmlns="http://www.w3.org/2000/svg" xmlns:xlink="http://www.w3.org/1999/xlink" x="0px" y="0px"
	 viewBox="0 0 64 64" style="enable-background:new 0 0 64 64;" xml:space="preserve">
<style type="text/css">
	.st0{fill:none;}
	.st1{fill:#B84931;}
</style>
<title>icon_perseverance_1</title>
<g>
	<g id="rovers_icons_copy_2">
		<circle class="st0" cx="32" cy="32" r="32"/>
		<path class="st1" d="M29.8,52.3c-2.5,0-4.7-1.9-5-4.4c-0.3-2.6,1.3-4.9,3.8-5.6l-6.1-3.5h-5.9l-6.1,3.5c2,0.5,3.5,2.2,3.8,4.3
			c0.2,1.3-0.2,2.7-1,3.8s-2,1.8-3.4,1.9c-0.2,0-0.5,0-0.7,0c-2.5,0-4.7-1.9-5-4.4c-0.2-1.3,0.2-2.7,1-3.8c0.7-1,1.8-1.6,2.9-1.9
			v-1.1l5.6-3.2v-3.1l-11-5.1l3.7-8.1l7.2,3.3v-6.7h4.2v4.4h2.8v3.2h1.2v1.6h3.8v-1.2h7v1.2h1.1v-2h1.8v-1.8h-2.4v-2.2h1.2v-2h1.2
			v-3h-2.4v-2.2h0.8V9.9h9.8v4.4h0.8v2.2H40v2.4h-0.8v0.6H40v2h2.4v0.4h1.2v1.8h-4.4v1.8h1.2v1.6H42v1.3l2.8-0.8
			c0-0.4,0.1-0.8,0.3-1.2c0.4-0.8,1.3-1.3,2.2-1.3c0.4,0,0.8,0.1,1.2,0.3c1,0.6,1.5,1.7,1.2,2.8l3.1,0.5l0,0l-2-2l4.6-4.6l7.8,7.8
			l-1.4,1.4l2,2l-1.2,1.2l0,0l-1.3,1.3l-2-2l-0.8,0.8L56.2,32c-0.4,0.7-1.1,1.1-1.9,1.2c-0.1,0-0.1,0-0.2,0c-1.3,0-2.4-1-2.5-2.3
			c0-0.1,0-0.2,0-0.3L48.3,30c-0.3,0.1-0.6,0.2-1,0.2c-0.6,0-1.1-0.2-1.5-0.5l-3.7,1v1.8h-1.6v5.7l4.9,2.9h0.4l0.1,0.5v0.8
			c2.1,0.5,3.7,2.2,3.9,4.3c0.2,1.3-0.2,2.7-1,3.8s-2,1.8-3.4,1.9c-0.2,0-0.4,0-0.7,0c-2.5,0-4.7-1.9-5-4.4
			c-0.3-2.6,1.3-4.9,3.8-5.6l-6.1-3.5H26.7l3.7,2.2h0.4l0.1,0.5v0.8c2.1,0.5,3.7,2.2,3.9,4.3c0.4,2.8-1.6,5.3-4.4,5.7
			C30.2,52.3,30,52.3,29.8,52.3z M28.7,43.7c-1.5,0.5-2.6,1.9-2.6,3.5c0,2,1.7,3.7,3.7,3.7s3.7-1.7,3.7-3.7c0-1.6-1.1-3-2.6-3.5V45
			c0.6,0.3,1.1,0.8,1.3,1.5c0.2,0.6,0.1,1.3-0.2,1.9c-0.3,0.6-0.8,1-1.5,1.2c-0.2,0.1-0.5,0.1-0.7,0.1c-1.1,0-2.1-0.7-2.4-1.8
			c-0.2-0.6-0.1-1.3,0.2-1.9c0.3-0.5,0.6-0.9,1.1-1.1V43.7z M43.7,43.7c-1.5,0.5-2.6,1.9-2.6,3.5c0,2,1.7,3.7,3.7,3.7
			s3.6-1.5,3.7-3.5v-0.2c0-1.6-1.1-3-2.6-3.5V45c0.6,0.3,1.1,0.8,1.3,1.5c0.2,0.6,0.1,1.3-0.2,1.9c-0.3,0.6-0.8,1-1.5,1.2
			c-0.2,0.1-0.5,0.1-0.8,0.1c-1.1,0-2.1-0.7-2.4-1.8c-0.2-0.6-0.1-1.3,0.2-1.9c0.3-0.5,0.6-0.9,1.1-1.1L43.7,43.7L43.7,43.7z
			 M8.1,43.7c-1.6,0.4-2.7,1.9-2.7,3.6c0,2,1.7,3.7,3.7,3.7c1,0,1.9-0.4,2.6-1.1c0.6-0.6,1-1.5,1.1-2.4v-0.2c0-1.6-1-2.9-2.4-3.5
			v1.3c0.6,0.3,1,0.9,1.2,1.6c0.3,1.3-0.5,2.7-1.9,3c-0.2,0-0.4,0.1-0.6,0.1c-1.2,0-2.2-0.8-2.4-1.9c-0.2-0.7,0-1.3,0.3-1.9
			c0.3-0.5,0.7-0.8,1.2-1v-1.3H8.1z"/>
	</g>
</g>
</svg>
