<?xml version="1.0" encoding="utf-8"?>
<!-- Generator: Adobe Illustrator 23.0.2, SVG Export Plug-In . SVG Version: 6.00 Build 0)  -->
<svg version="1.1" id="Layer_1" xmlns="http://www.w3.org/2000/svg" xmlns:xlink="http://www.w3.org/1999/xlink" x="0px" y="0px"
	 viewBox="0 0 75.2 62.5" style="enable-background:new 0 0 75.2 62.5;" xml:space="preserve">
<style type="text/css">
	.st0{fill:none;stroke:#F3FAC2;stroke-width:2;stroke-linecap:round;stroke-linejoin:round;}
</style>
<title>icon_weather_cloudy</title>
<g>
	<g id="color_comps">
		<line class="st0" x1="42.9" y1="1" x2="44.1" y2="9.1"/>
		<line class="st0" x1="63.4" y1="6.3" x2="58.5" y2="12.8"/>
		<line class="st0" x1="74.2" y1="24.5" x2="66.1" y2="25.6"/>
		<line class="st0" x1="68.9" y1="45" x2="62.4" y2="40.1"/>
		<line class="st0" x1="31.3" y1="16.7" x2="24.7" y2="11.8"/>
		<path class="st0" d="M44.6,35.1c3.4,0,6.6,1.3,9,3.7c6.1-4,7.7-12.2,3.7-18.3S45,12.8,38.9,16.8c-2.8,1.9-4.8,4.8-5.6,8.1
			C38.9,25.6,43.3,29.7,44.6,35.1z"/>
		<path class="st0" d="M57.7,48.3c0-7.3-5.8-13.1-13.1-13.2c-1.6-7.1-8.6-11.6-15.7-10c-5.3,1.2-9.3,5.5-10.1,10.8
			c-6.8-2.5-14.4,1-16.9,7.9s1,14.4,7.9,16.9c1.4,0.5,2.9,0.8,4.4,0.8h30.7C51.9,61.3,57.7,55.5,57.7,48.3z"/>
	</g>
</g>
</svg>
