<?xml version="1.0" encoding="utf-8"?>
<!-- Generator: Adobe Illustrator 23.0.2, SVG Export Plug-In . SVG Version: 6.00 Build 0)  -->
<svg version="1.1" id="Layer_1" xmlns="http://www.w3.org/2000/svg" xmlns:xlink="http://www.w3.org/1999/xlink" x="0px" y="0px"
	 viewBox="0 0 64 64" style="enable-background:new 0 0 64 64;" xml:space="preserve">
<style type="text/css">
	.st0{fill:none;}
	.st1{fill:#B84931;}
</style>
<title>icon_mars_1</title>
<g>
	<g id="navBar_RE_NEW">
		<g id="rovers_icons_copy_2">
			<circle class="st0" cx="32" cy="32" r="32"/>
			<path class="st1" d="M46.6,17.1c-0.2-0.2-0.6-0.2-0.9,0c-0.2,0.2-0.2,0.6,0,0.9c3.6,3.6,5.7,8.5,5.8,13.7
				c-2.7,0.2-4.8,2.5-4.6,5.3c0.1,1.6,1,3.1,2.5,3.9c-1,1.9-2.2,3.6-3.7,5.1c-2.7,2.7-6.1,4.6-9.9,5.4c-0.9-2.3-3.5-3.4-5.8-2.5
				c-1.1,0.5-2,1.3-2.5,2.5C16.8,49.1,10,38.6,12.3,27.8c0.4-1.8,1-3.5,1.9-5.2c1.1,0.5,2.3,0.7,3.5,0.7c1,0,2-0.2,3-0.5
				c0.3-0.1,0.5-0.5,0.4-0.8c-0.1-0.3-0.5-0.5-0.8-0.4c-1.8,0.6-3.7,0.6-5.5-0.1c0.8-1.3,1.8-2.5,2.9-3.6c2.1-2.1,4.6-3.7,7.4-4.7
				c0.5,2.7-0.5,5.5-2.7,7.2c-0.3,0.2-0.3,0.6-0.1,0.9c0.1,0.1,0.3,0.2,0.5,0.2c0.1,0,0.3-0.1,0.4-0.1c2.1-1.7,3.3-4.2,3.3-6.8
				c0-0.6-0.1-1.2-0.2-1.7c1.8-0.5,3.6-0.7,5.4-0.7c4.4,0,8.7,1.4,12.1,4.2c0.3,0.2,0.7,0.2,0.9-0.1c0.2-0.3,0.2-0.7-0.1-0.9
				C35.4,8.2,22.2,9.9,15,19.1c-6.5,8.4-5.8,20.3,1.8,27.8c8.2,8.2,21.6,8.3,29.8,0S54.9,25.4,46.6,17.1L46.6,17.1z M28.8,51.6
				c0.8-1.6,2.7-2.2,4.3-1.4c0.6,0.3,1.1,0.8,1.4,1.4C32.7,51.9,30.7,51.9,28.8,51.6z M48.2,36.6c0-1.9,1.5-3.5,3.3-3.6
				c-0.1,2.3-0.6,4.7-1.6,6.8C48.8,39.2,48.2,38,48.2,36.6L48.2,36.6z"/>
			<path class="st1" d="M37.4,30.7L37.4,30.7c-0.3,0-0.6,0.3-0.6,0.6c0,0,0,0,0,0c0,0.3,0.3,0.6,0.6,0.6l0,0c3,0,5.4-2.4,5.4-5.4
				s-2.4-5.4-5.4-5.4S32,23.6,32,26.6c0,1.8,0.9,3.6,2.5,4.5c0.2,0.3,0.6,0.3,0.9,0c0.3-0.2,0.3-0.6,0-0.9c-0.1-0.1-0.2-0.1-0.2-0.2
				c-1.9-1.2-2.5-3.8-1.3-5.7s3.8-2.5,5.7-1.3s2.5,3.8,1.3,5.7C40.1,30.1,38.8,30.8,37.4,30.7L37.4,30.7z"/>
			<path class="st1" d="M23.5,39.4c1.9,0,3.3-1.5,3.3-3.4c0-1.9-1.5-3.3-3.4-3.3c-1.8,0-3.3,1.5-3.3,3.3
				C20.1,37.9,21.6,39.3,23.5,39.4L23.5,39.4z M23.5,33.9c1.2,0,2.1,1,2.1,2.1s-1,2.1-2.1,2.1s-2.1-1-2.1-2.1c0,0,0,0,0,0
				C21.4,34.8,22.3,33.9,23.5,33.9L23.5,33.9z"/>
			<path class="st1" d="M18.4,26.7c-1.3,0-2.3,1-2.3,2.3s1,2.3,2.3,2.3c1.3,0,2.3-1,2.3-2.3c0,0,0,0,0,0
				C20.7,27.8,19.7,26.8,18.4,26.7z M18.4,30.1c-0.6,0-1.1-0.4-1.1-1c0-0.6,0.4-1.1,1-1.1c0.6,0,1.1,0.4,1.1,1c0,0,0,0,0,0
				C19.5,29.6,19,30.1,18.4,30.1C18.5,30.1,18.4,30.1,18.4,30.1z"/>
			<path class="st1" d="M36.6,45.7c1.7,0,3.1-1.4,3.1-3.1s-1.4-3.1-3.1-3.1c-1.7,0-3.1,1.4-3.1,3.1c0,0,0,0,0,0
				C33.5,44.3,34.9,45.7,36.6,45.7z M36.6,40.7c1,0,1.9,0.8,1.9,1.9c0,1-0.8,1.9-1.9,1.9c-1,0-1.9-0.8-1.9-1.9c0,0,0,0,0,0
				C34.8,41.6,35.6,40.7,36.6,40.7L36.6,40.7z"/>
			<path class="st1" d="M43.5,36.1c0-1.3-1.1-2.4-2.4-2.4c-1.3,0-2.4,1.1-2.4,2.4c0,1.3,1.1,2.4,2.4,2.4c0,0,0,0,0,0
				C42.5,38.4,43.5,37.4,43.5,36.1z M40,36.1c0-0.6,0.5-1.2,1.1-1.2c0.6,0,1.2,0.5,1.2,1.1c0,0.6-0.5,1.2-1.1,1.2c0,0,0,0,0,0
				C40.5,37.2,40,36.7,40,36.1z"/>
		</g>
	</g>
</g>
</svg>
