<?xml version="1.0" encoding="utf-8"?>
<!-- Generator: Adobe Illustrator 23.0.2, SVG Export Plug-In . SVG Version: 6.00 Build 0)  -->
<svg version="1.1" id="Layer_1" xmlns="http://www.w3.org/2000/svg" xmlns:xlink="http://www.w3.org/1999/xlink" x="0px" y="0px"
	 viewBox="0 0 71.7 62.4" style="enable-background:new 0 0 71.7 62.4;" xml:space="preserve">
<style type="text/css">
	.st0{fill:none;stroke:#F3FAC2;stroke-width:1.87;stroke-linecap:round;stroke-linejoin:round;}
	.st1{fill:none;stroke:#F3FAC2;stroke-width:0.94;stroke-linecap:round;stroke-linejoin:round;}
</style>
<title>icon_weather_windy</title>
<g>
	<g id="color_comps">
		<path class="st0" d="M37.1,59.2c4.7,3.6,11.5,2.7,15.1-2c0.3-0.4,0.6-0.8,0.8-1.2"/>
		<path class="st0" d="M22.4,47.6c2.8,3.8,9.3,6.3,16.9,6.2s14-3,16.7-6.8"/>
		<path class="st0" d="M12.5,32.8C12.4,39,23,44.4,36.4,44.9c12.7,0.5,20.5-2.5,24.7-8.6"/>
		<path class="st0" d="M11.1,22.1c0,0.2,0,0.3-0.1,0.5c-0.3,6.3,11.7,11.9,26.6,12.4c14.4,0.5,26.3-3.8,27.4-9.7"/>
		
			<ellipse transform="matrix(5.094152e-02 -0.9987 0.9987 5.094152e-02 24.995 51.1922)" class="st0" cx="39.4" cy="12.4" rx="11.4" ry="30.2"/>
		<ellipse transform="matrix(0.7071 -0.7071 0.7071 0.7071 -12.7689 58.8731)" class="st1" cx="64.7" cy="44.9" rx="2.4" ry="2.4"/>
		<ellipse class="st1" cx="2.7" cy="32.4" rx="2.3" ry="2.3"/>
		<ellipse class="st1" cx="69.6" cy="34.6" rx="1.7" ry="1.6"/>
		<ellipse class="st1" cx="8.4" cy="42.6" rx="1.7" ry="1.7"/>
	</g>
</g>
</svg>
