<?xml version="1.0" encoding="utf-8"?>
<!-- Generator: Adobe Illustrator 23.0.2, SVG Export Plug-In . SVG Version: 6.00 Build 0)  -->
<svg version="1.1" id="Layer_1" xmlns="http://www.w3.org/2000/svg" xmlns:xlink="http://www.w3.org/1999/xlink" x="0px" y="0px"
	 viewBox="0 0 64 64" style="enable-background:new 0 0 64 64;" xml:space="preserve">
<style type="text/css">
	.st0{fill:#B84931;}
	.st1{fill:none;}
</style>
<title>icon_opportunity_1</title>
<g>
	<g id="navBar_RE_NEW">
		<g id="rovers_icons_copy_2">
			<path class="st0" d="M53.5,43.9v-4h-8.7V29.2h12.6V27h-1.9V16.1h1.7v-3H53V27H6.3v2.2H19v10.7h-8.5v4c-2.8,0.5-4.6,3.1-4.1,5.8
				c0.5,2.8,3.1,4.6,5.8,4.1c2.8-0.5,4.6-3.1,4.1-5.8c-0.4-2.1-2-3.8-4.1-4.1v-1.8H31v1.8c-2.8,0.5-4.6,3.1-4.1,5.8
				c0.5,2.8,3.1,4.6,5.8,4.1c2.8-0.5,4.6-3.1,4.1-5.8c-0.4-2.1-2-3.8-4.1-4.1v-1.8h19.1v1.8c-2.8,0.5-4.6,3.1-4.1,5.8
				s3.1,4.6,5.8,4.1s4.6-3.1,4.1-5.8C57.3,45.9,55.6,44.2,53.5,43.9z"/>
			<circle class="st1" cx="32" cy="32" r="32"/>
		</g>
	</g>
</g>
</svg>
