<?xml version="1.0" encoding="utf-8"?>
<!-- Generator: Adobe Illustrator 23.0.2, SVG Export Plug-In . SVG Version: 6.00 Build 0)  -->
<svg version="1.1" id="Layer_1" xmlns="http://www.w3.org/2000/svg" xmlns:xlink="http://www.w3.org/1999/xlink" x="0px" y="0px"
	 viewBox="0 0 53.1 27.3" style="enable-background:new 0 0 53.1 27.3;" xml:space="preserve">
<style type="text/css">
	.st0{fill:#F3FAC2;}
</style>
<title>icon_sunset</title>
<g>
	<g id="Layer_45">
		<path class="st0" d="M12.5,21.2L12.5,21.2c-0.1,0.3-0.5,0.4-0.8,0.3l-4.7-2.2c-0.3-0.1-0.4-0.5-0.3-0.8h0c0.1-0.3,0.5-0.4,0.8-0.3
			l4.7,2.2C12.5,20.5,12.6,20.9,12.5,21.2z"/>
		<path class="st0" d="M20.7,12.8L20.7,12.8c-0.3,0.1-0.7,0-0.8-0.3l-2.3-4.7c-0.1-0.3,0-0.7,0.3-0.8l0,0c0.3-0.1,0.7,0,0.8,0.3
			l2.3,4.7C21.1,12.3,21,12.6,20.7,12.8z"/>
		<path class="st0" d="M32.2,12.7L32.2,12.7c-0.3-0.1-0.4-0.5-0.3-0.8l2.3-4.7c0.1-0.3,0.5-0.4,0.8-0.3l0,0c0.3,0.1,0.4,0.5,0.3,0.8
			L33,12.4C32.8,12.7,32.5,12.8,32.2,12.7z"/>
		<path class="st0" d="M40.5,21L40.5,21c-0.1-0.3,0-0.7,0.3-0.8l4.7-2.2c0.3-0.1,0.7,0,0.8,0.3l0,0c0.1,0.3,0,0.7-0.3,0.8l-4.7,2.2
			C41,21.4,40.6,21.3,40.5,21z"/>
		<path class="st0" d="M11.9,27.1c0-0.2,0-0.4,0-0.6c0.2-8.1,6.9-14.5,15-14.3c7.8,0.2,14.1,6.5,14.3,14.3c0,0.2,0,0.4,0,0.6h1
			c0-0.2,0-0.4,0-0.6c-0.2-8.7-7.4-15.5-16.1-15.3c-8.3,0.2-15.1,6.9-15.3,15.3c0,0.2,0,0.4,0,0.6H11.9z"/>
		<path class="st0" d="M0.5,26H11c0.3,0,0.5,0.2,0.5,0.5l0,0c0,0.3-0.2,0.5-0.5,0.5H0.5c-0.3,0-0.5-0.2-0.5-0.5l0,0
			C0,26.2,0.2,26,0.5,26z"/>
		<path class="st0" d="M42,26h10.5c0.3,0,0.5,0.2,0.5,0.5l0,0c0,0.3-0.2,0.5-0.5,0.5H42c-0.3,0-0.5-0.2-0.5-0.5l0,0
			C41.5,26.2,41.7,26,42,26z"/>
		<path class="st0" d="M37.1,15.2l7.4-7.4c0.2-0.2,0.5-0.2,0.7,0v0c0.2,0.2,0.2,0.5,0,0.7l-7.4,7.4c-0.2,0.2-0.5,0.2-0.7,0v0
			C36.9,15.7,36.9,15.4,37.1,15.2z"/>
		<path class="st0" d="M25.9,11V0.5c0-0.3,0.2-0.5,0.5-0.5l0,0C26.7,0,27,0.2,27,0.5V11c0,0.3-0.2,0.5-0.5,0.5l0,0
			C26.2,11.6,25.9,11.3,25.9,11z"/>
		<path class="st0" d="M26.8,27.1L26.8,27.1c-0.2,0.2-0.6,0.3-0.9,0l-3.8-3.5c-0.2-0.2-0.3-0.6,0-0.9l0,0c0.2-0.2,0.6-0.3,0.9,0
			l3.8,3.5C27.1,26.4,27.1,26.8,26.8,27.1z"/>
		<path class="st0" d="M30.8,22.7L30.8,22.7c0.2,0.2,0.2,0.6,0,0.9l-3.8,3.5c-0.2,0.2-0.6,0.2-0.9,0l0,0c-0.2-0.2-0.2-0.6,0-0.9
			l3.8-3.5C30.2,22.4,30.6,22.5,30.8,22.7z"/>
		<path class="st0" d="M25.9,26.3V15.8c0-0.3,0.2-0.5,0.5-0.5l0,0c0.3,0,0.5,0.2,0.5,0.5v10.5c0,0.3-0.2,0.5-0.5,0.5l0,0
			C26.2,26.8,25.9,26.6,25.9,26.3z"/>
		<path class="st0" d="M15.2,15.9L7.8,8.5C7.6,8.3,7.6,8,7.8,7.8l0,0c0.2-0.2,0.5-0.2,0.7,0l7.4,7.4c0.2,0.2,0.2,0.5,0,0.7l0,0
			C15.7,16.2,15.4,16.2,15.2,15.9z"/>
	</g>
</g>
</svg>
