<?xml version="1.0" encoding="utf-8"?>
<!-- Generator: Adobe Illustrator 23.0.2, SVG Export Plug-In . SVG Version: 6.00 Build 0)  -->
<svg version="1.1" id="Layer_1" xmlns="http://www.w3.org/2000/svg" xmlns:xlink="http://www.w3.org/1999/xlink" x="0px" y="0px"
	 viewBox="0 0 64 64" style="enable-background:new 0 0 64 64;" xml:space="preserve">
<style type="text/css">
	.st0{fill:#E7A14A;}
	.st1{fill:none;}
</style>
<title>icon_spirit_1</title>
<g>
	<g id="navBar_RE_NEW_1_">
		<g id="rovers_icons_copy_2_1_">
			<path class="st0" d="M6.4,48c-0.5,2.8,1.4,5.4,4.1,5.8s5.4-1.4,5.8-4.1c0.5-2.8-1.4-5.4-4.1-5.8v-1.8h19.1v1.8
				c-2.1,0.4-3.8,2-4.1,4.1c-0.5,2.8,1.4,5.4,4.1,5.8c2.8,0.5,5.4-1.4,5.8-4.1c0.5-2.8-1.4-5.4-4.1-5.8v-1.8h18.8v1.8
				c-2.1,0.4-3.8,2-4.1,4.1c-0.5,2.8,1.4,5.4,4.1,5.8c2.8,0.5,5.4-1.4,5.8-4.1c0.5-2.8-1.4-5.4-4.1-5.8v-4H45V29.2h12.7V27H10.9
				V13.1H6.7v3h1.7V27H6.5v2.2h12.6v10.7h-8.7v4C8.4,44.2,6.7,45.9,6.4,48z"/>
			<circle class="st1" cx="32" cy="32" r="32"/>
		</g>
	</g>
</g>
</svg>
