<?xml version="1.0" encoding="utf-8"?>
<!-- Generator: Adobe Illustrator 23.0.2, SVG Export Plug-In . SVG Version: 6.00 Build 0)  -->
<svg version="1.1" id="Layer_1" xmlns="http://www.w3.org/2000/svg" xmlns:xlink="http://www.w3.org/1999/xlink" x="0px" y="0px"
	 viewBox="0 0 64 64" style="enable-background:new 0 0 64 64;" xml:space="preserve">
<style type="text/css">
	.st0{fill:#E7A14A;}
	.st1{fill:none;}
</style>
<title>icon_insight_1</title>
<g>
	<g id="navBar_RE_NEW">
		<g id="rovers_icons_copy_2">
			<polygon class="st0" points="19,27 24.4,40.5 40,40.5 45.4,27 			"/>
			<rect x="16.9" y="23.9" class="st0" width="30.6" height="3"/>
			<rect x="50.1" y="23.9" class="st0" width="13" height="3"/>
			<rect x="0.9" y="23.9" class="st0" width="13" height="3"/>
			<rect x="9.5" y="30.7" class="st0" width="13" height="3"/>
			
				<rect x="4.8" y="39.1" transform="matrix(0.5524 -0.8336 0.8336 0.5524 -26.1854 31.5257)" class="st0" width="22.9" height="2"/>
			<rect x="9.3" y="41.8" transform="matrix(0.833 -0.5532 0.5532 0.833 -20.5168 18.7501)" class="st0" width="23" height="3.1"/>
			<polygon class="st0" points="53.7,48.4 34.5,35.7 32.7,37.9 51.9,50.6 			"/>
			<rect x="8.5" y="24.6" class="st0" width="3" height="9.1"/>
			<rect x="41.5" y="30.7" class="st0" width="13" height="3"/>
			<rect x="52.5" y="24.6" class="st0" width="3" height="9.1"/>
			<ellipse class="st0" cx="10.4" cy="50.3" rx="4.1" ry="1.7"/>
			<rect x="46.4" y="28.7" transform="matrix(0.833 -0.5532 0.5532 0.833 -14.3255 32.9363)" class="st0" width="2" height="23"/>
			<ellipse class="st0" cx="53.5" cy="50.3" rx="4.1" ry="1.7"/>
			<circle class="st1" cx="32" cy="32" r="32"/>
		</g>
	</g>
</g>
<rect x="130.6" y="11.1" class="st0" width="64.1" height="64.1"/>
</svg>
